<?xml version="1.0" encoding="UTF-8"?>
<!DOCTYPE svg PUBLIC "-//W3C//DTD SVG 1.1//EN" "http://www.w3.org/Graphics/SVG/1.1/DTD/svg11.dtd">
<!-- Creator: CorelDRAW 2018 (64-Bit Evaluation Version) -->
<svg xmlns="http://www.w3.org/2000/svg" xml:space="preserve" width="5.40613in" height="1.19998in" version="1.1" style="shape-rendering:geometricPrecision; text-rendering:geometricPrecision; image-rendering:optimizeQuality; fill-rule:evenodd; clip-rule:evenodd"
viewBox="0 0 5840.38 1296.37"
 xmlns:xlink="http://www.w3.org/1999/xlink">
 <defs>
  <style type="text/css">
   <![CDATA[
    .fil2 {fill:none}
    .fil3 {fill:#00A1E3}
    .fil4 {fill:#00ADEE}
    .fil0 {fill:#016FB9}
    .fil5 {fill:url(#id5)}
    .fil1 {fill:url(#id6)}
   ]]>
  </style>
      <clipPath id="id0">
       <path d="M3331.85 675.67c0,87.66 -72.37,139.05 -208.42,139.05l-273.67 0 0 -506.79 259.1 0c133.19,0 198.29,54.25 198.29,132.48 0,48.54 -24.55,87.66 -68.09,110.07 57.24,20.27 92.65,63.67 92.65,125.2l0.14 0zm-340.19 -264.24l0 97.79 98.5 -0c47.82,0 72.38,-16.7 72.38,-49.25 0,-32.55 -24.55,-48.54 -72.38,-48.54l-98.5 0zm195.43 248.25c0,-34.69 -26.12,-51.39 -75.23,-51.39l-120.2 0 0 102.78 120.2 0c49.25,0 75.23,-16.7 75.23,-51.39l0 0z"/>
      </clipPath>
      <clipPath id="id1">
       <path d="M3077.18 809.43l-221.42 0 0 -249.82 141.9 152.18 147.33 0c0,0 63.81,-20.27 34.83,-78.8 -28.98,-58.39 -24.55,-63.81 -24.55,-63.81 0,0 34.69,-12.28 71.67,-24.84 3,17.85 6,32.41 6,32.41 0,0 27.69,-15.13 24.98,34.83 -2.71,49.96 -23.27,87.51 -33.97,105.35 -10.71,17.85 -133.91,82.94 -133.91,82.94l-12.84 9.57zm-284.66 -288.08l1.57 0 0 325.63 -1.57 -0 0 -325.63 0 0z"/>
      </clipPath>
       <clipPath id="id2">
        <path d="M3077.18 809.43l-221.42 0 0 -249.82 141.9 152.18 147.33 0c0,0 63.81,-20.27 34.83,-78.8 -28.98,-58.39 -24.55,-63.81 -24.55,-63.81 0,0 34.69,-12.28 71.67,-24.84 3,17.85 6,32.41 6,32.41 0,0 27.69,-15.13 24.98,34.83 -2.71,49.96 -23.27,87.51 -33.97,105.35 -10.71,17.85 -133.91,82.94 -133.91,82.94l-12.84 9.57zm-284.66 37.54l1.57 0 0 -325.62 -1.57 0 0 325.62zm0 -325.63l0 0z"/>
       </clipPath>
       <clipPath id="id3">
        <path d="M3077.18 809.43l-221.42 0 0 -249.82 141.9 152.18 147.33 0c0,0 63.81,-20.27 34.83,-78.8 -28.98,-58.39 -24.55,-63.81 -24.55,-63.81 0,0 34.69,-12.28 71.67,-24.84 3,17.85 6,32.41 6,32.41 0,0 27.69,-15.13 24.98,34.83 -2.71,49.96 -23.27,87.51 -33.97,105.35 -10.71,17.85 -133.91,82.94 -133.91,82.94l-12.84 9.57zm-284.66 -288.08l1.57 0 0 325.63 -1.57 -0 0 -325.63 0 0z"/>
       </clipPath>
      <clipPath id="id4">
       <path d="M2850.05 529.91l0 283.66 93.79 0c96.65,-181.44 229.41,-218.42 229.41,-218.42l-37.83 -48.68c-9.14,3.85 -19.56,6.14 -30.55,6.14 -37.11,0 -67.24,-25.27 -67.24,-56.24 0,-17.7 9.71,-33.41 24.84,-43.69l-38.12 -50.11c-85.94,13.27 -147.89,89.08 -174.31,127.48l0 -0.14z"/>
      </clipPath>
  <linearGradient id="id5" gradientUnits="userSpaceOnUse" x1="2826.64" y1="999.44" x2="3126.43" y2="342.77">
   <stop offset="0" style="stop-opacity:1; stop-color:#FFEB8C"/>
   <stop offset="1" style="stop-opacity:1; stop-color:#FDAB09"/>
  </linearGradient>
  <linearGradient id="id6" gradientUnits="userSpaceOnUse" x1="2969.39" y1="-128.34" x2="2798.08" y2="756.75">
   <stop offset="0" style="stop-opacity:1; stop-color:#16AEE5"/>
   <stop offset="0.121569" style="stop-opacity:1; stop-color:#0EA6E1"/>
   <stop offset="0.258824" style="stop-opacity:1; stop-color:#0098DB"/>
   <stop offset="1" style="stop-opacity:1; stop-color:#006AB4"/>
  </linearGradient>
 </defs>
 <g id="Layer_x0020_1">
  <metadata id="CorelCorpID_0Corel-Layer"/>
  <g id="_2347896498688">
   <g id="Layer_1">
    <g>
     <g>
      <path class="fil0" d="M824.19 1116.22l0 -850.26 -118.92 -26.27 0 374.31c0,62.96 -5.85,116.35 -17.56,160.03 -11.7,43.68 -32.69,81.94 -62.95,114.63 -24.55,26.84 -53.68,54.25 -87.51,82.23 -24.55,19.84 -48.4,39.68 -71.67,59.53 25.7,17.56 52.54,32.69 80.51,45.54 27.98,12.85 57.67,22.7 89.22,29.7 11.7,2.28 28.27,4.71 49.82,6.99 21.56,2.28 45.11,3.43 70.81,3.43l40.26 0c11.56,0 20.99,0 27.98,0l0 0.14zm-314.92 -295.79l0 -610.43 -26.26 -7c-69.95,41.97 -123.06,105.5 -159.17,190.72 -31.55,73.52 -47.25,150.47 -47.25,230.98 0,113.2 26.27,209.42 78.66,288.66 17.56,25.7 43.69,54.25 78.66,85.65 8.14,-6.99 14.56,-12.85 19.27,-17.56 13.99,-15.13 23.55,-29.7 28.84,-43.69 5.28,-13.99 8.99,-25.55 11.42,-34.97 10.42,-32.55 15.71,-59.96 15.71,-82.23l0.14 -0.14zm708.51 -813.29l0 39.97c0,49.82 -9.85,88.65 -29.69,116.49 -19.85,27.84 -47.82,49.25 -83.94,64.24 -27.98,11.56 -63.53,20.84 -106.64,27.84 -43.12,6.99 -84.52,10.42 -124.2,10.42l0 844.98c76.95,-26.84 141.04,-63.53 192.43,-110.21 37.26,-34.97 76.38,-84.51 117.21,-148.75l12.28 5.28c-19.85,124.77 -74.95,229.13 -165.32,313.06 -90.36,83.94 -199.15,125.91 -326.2,125.91 -177.31,0 -324.49,-49.96 -441.69,-149.75 -117.21,-99.93 -175.88,-224.56 -175.88,-374.02 0,-105.07 30.26,-210.85 90.94,-317.21 66.53,-116.77 152.18,-203.85 257.1,-261.1 -22.13,-3.85 -40.26,-6.28 -54.25,-7.28 -13.99,-1 -34.97,-1.42 -62.95,-1.42l-22.7 0c-37.4,0 -86.37,17.27 -146.9,51.54 -60.67,34.4 -105.5,73.81 -134.76,118.06l-10.71 0c-7,-33.83 5.28,-79.8 36.83,-138.19 78.23,-144.61 206.71,-216.85 385.45,-216.85 50.25,0 160.32,16.99 330.2,50.68 169.88,33.83 264.24,50.68 282.94,50.68 42.11,0 74.09,-5.85 96.36,-17.56 26.83,-15.13 49.68,-43.12 68.38,-83.94l15.7 6.99 0 0.14z"/>
     </g>
     <path class="fil0" d="M989.21 355.89l-30.41 0 0 -25.98 170.59 -12.42 0 105.21c22.7,-67.38 53.68,-101.07 93.08,-101.07l7.14 -0c26.98,0 46.82,16.99 59.67,50.82 9.14,23.12 13.7,49.39 13.7,78.8 0,24.27 -4.57,46.54 -13.7,66.95 -12.7,26.98 -30.98,40.4 -54.82,40.4 -45.39,-7.57 -67.95,-46.96 -67.95,-118.2l4.85 -46.68c-1.57,-2 -2.71,-3.42 -3.57,-4.14l-2.43 -2c-8.71,0 -16.84,20.99 -24.41,62.81 -3.14,17.27 -4.71,46.39 -4.71,87.08l0 261.39 42.4 0 0 24.41 -219.42 0 0 -24.41 30.41 0 0 -442.97 -0.43 0z"/>
     <path class="fil0" d="M1353.24 168.74c0,-62.96 26.84,-94.37 80.51,-94.37 53.68,0 76.95,34.12 76.95,102.21 0,25.98 -5,48.25 -14.85,66.95 -13.13,24.55 -32.98,36.83 -59.67,36.83 -56.1,0 -84.08,-33.97 -84.08,-101.64l1.14 -9.85 0 -0.14zm6 187.73l-30.41 0 0 -26.41c27.84,0 60.39,-1.71 97.79,-5.14l79.37 -7.28 0 481.23 32.84 0 0 24.41 -210 0 0 -24.41 30.41 0 0 -442.4z"/>
     <path class="fil0" d="M1786.94 456.54c0,-50.82 -7.42,-76.23 -22.13,-76.23 -21.84,0 -32.83,33.83 -32.83,101.64l0 185.16c0,72.95 10.57,109.5 31.55,109.5 11.99,0 19.13,-17.13 21.42,-51.39 1.28,-15.28 1.85,-35.26 1.85,-60.1l0 -208.43 0.14 -0.14zm-54.82 -64.81c23.84,-50.11 51.54,-75.23 82.94,-75.23 6,0 10.14,0.28 12.56,1 40.54,4.85 70.81,41.12 90.65,108.93 13.56,46.39 20.27,95.22 20.27,146.75 0,126.48 -24.98,209.14 -74.95,247.97 -6.85,5.57 -13.56,9.43 -20.42,11.99 -8.71,3.42 -19.13,5.14 -31.12,5.14 -41.97,0 -70.95,-31.98 -86.94,-95.93l0 95.93c-26.27,-3.85 -65.96,-8.42 -119.2,-13.99 -14.27,-0.71 -29.55,-1 -45.97,-1l0 -24.41 31.7 0 0 -673.67 -31.55 0 0 -23.41c36.11,0 93.65,-5.71 172.45,-17.13l0 307.07 -0.43 0z"/>
     <path class="fil0" d="M1997.08 356.46l-29.84 0 0 -26.41c40.97,0 98.93,-4.14 174.16,-12.42l0 392.01c0,28.41 1.71,44.97 5.43,49.82 2.43,5.57 8,8.28 16.7,8.28 11.99,0 20.85,-10.85 26.84,-32.55 5.57,-20.42 8.28,-45.25 8.28,-74.66l0 -304.07 -32.12 0 0 -26.41c19.56,0 48.54,-1.71 87.09,-5.14 38.54,-3.42 67.52,-5.14 87.08,-5.14l0 479.09 33.41 0 0 24.41c-32.27,0 -62.39,1.71 -90.65,5.14l-79.37 9.85 0 -97.93c-27.84,65.38 -63.95,98.07 -108.49,98.07 -6.71,0 -11.7,-0.28 -14.85,-1 -30.26,-2.71 -51.68,-21.7 -64.39,-56.81 -12.7,-35.12 -19.13,-80.08 -19.13,-134.9l0 -289.23 0 0 -0.14 0z"/>
     <path class="fil0" d="M2431.92 798.73l0 -442.26 -29.84 0 0 -26.41c16.7,0 36.55,-1 59.67,-3.14 53.25,-4.85 91.37,-7.28 114.49,-7.28l0 96.51c24.7,-65.67 58.82,-98.5 102.64,-98.5 9.14,0 16.13,0.28 20.85,1 6,1.71 12.99,4.42 20.85,8.28 36.54,17.99 54.82,76.81 54.82,176.31l0 295.65 32.26 -0 0 24.41 -194.43 0 0 -24.41 20.27 0 0 -347.47c0,-39.69 -6.71,-59.67 -20.27,-59.67l-2.43 0c-10.71,0 -18.84,9.28 -24.41,27.98 -6.71,23.13 -10.14,44.97 -10.14,65.39l0 313.78 22.13 0 0 24.41 -196.15 0 0 -24.41 29.84 0 -0.14 -0.14z"/>
     <g>
     </g>
     <g style="clip-path:url(#id0)">
      <g>
       <rect class="fil1" x="-1476.2" y="-5060.6" width="8498.04" height="12018.58"/>
      </g>
     </g>
     <path class="fil2" d="M3331.85 675.67c0,87.66 -72.37,139.05 -208.42,139.05l-273.67 0 0 -506.79 259.1 0c133.19,0 198.29,54.25 198.29,132.48 0,48.54 -24.55,87.66 -68.09,110.07 57.24,20.27 92.65,63.67 92.65,125.2l0.14 0zm-340.19 -264.24l0 97.79 98.5 -0c47.82,0 72.38,-16.7 72.38,-49.25 0,-32.55 -24.55,-48.54 -72.38,-48.54l-98.5 0zm195.43 248.25c0,-34.69 -26.12,-51.39 -75.23,-51.39l-120.2 0 0 102.78 120.2 0c49.25,0 75.23,-16.7 75.23,-51.39l0 0z"/>
     <path class="fil3" d="M3345.7 617.71c0,-118.06 93.36,-202 221.56,-202 128.2,0 221.56,83.94 221.56,202 0,118.06 -91.93,203.43 -221.56,203.43 -129.63,0 -221.56,-84.66 -221.56,-203.43zm304.07 0c0,-59.38 -35.4,-92.65 -82.51,-92.65 -47.11,0 -82.51,33.26 -82.51,92.65 0,59.39 36.26,94.08 82.51,94.08 46.25,0 82.51,-33.97 82.51,-94.08z"/>
     <path class="fil3" d="M3798.39 617.71c0,-118.06 93.36,-202 221.56,-202 128.2,0 221.56,83.94 221.56,202 0,118.06 -91.94,203.43 -221.56,203.43 -129.63,0 -221.56,-84.66 -221.56,-203.43zm304.07 0c0,-59.38 -35.4,-92.65 -82.51,-92.65 -47.11,0 -82.51,33.26 -82.51,92.65 0,59.39 36.26,94.08 82.51,94.08 46.25,0 82.51,-33.97 82.51,-94.08z"/>
     <polygon class="fil4" points="4453.64,677.1 4413.1,718.35 4413.1,814.57 4275.62,814.57 4275.62,277.52 4413.1,277.52 4413.1,559.03 4553.57,422.28 4716.46,422.28 4553.57,590.16 4730.16,814.57 4563.71,814.57 4453.64,677.1 "/>
     <path class="fil4" d="M4725.88 305.78c0,-41.26 33.26,-73.09 83.94,-73.09 50.68,0 83.94,29.7 83.94,70.95 0,43.4 -33.26,75.23 -83.94,75.23 -50.68,0 -83.94,-31.84 -83.94,-73.09zm15.13 116.49l137.48 0 0 392.29 -137.48 0 0 -392.29z"/>
     <path class="fil4" d="M5355.86 590.3l0 224.41 -137.47 0 0 -202c0,-56.53 -24.55,-80.37 -64.39,-80.37 -44.11,0 -78.23,27.55 -78.23,92.65l0 189.58 -137.47 0 0 -392.29 131.05 0 0 42.68c31.12,-32.55 75.23,-49.25 124.48,-49.25 91.93,0 162.17,52.82 162.17,174.45l-0.14 0.14z"/>
     <path class="fil4" d="M5840.24 422.28l0 320.63c0,148.32 -83.94,218.56 -230.12,218.56 -75.24,0 -146.9,-17.42 -194.72,-51.39l49.96 -96.22c32.55,26.13 86.08,41.97 132.48,41.97 73.81,0 104.92,-33.26 104.92,-94.79l0 -12.99c-26.83,31.12 -66.67,46.4 -116.49,46.4 -104.21,0 -192.58,-73.81 -192.58,-189.58 0,-115.77 88.37,-188.87 192.58,-188.87 54.25,0 96.22,17.42 123.05,54.25l0 -47.82 131.05 -0 -0.14 -0.14zm-136.05 182.44c0,-47.82 -36.26,-79.66 -85.37,-79.66 -49.11,0 -86.08,31.84 -86.08,79.66 0,47.82 36.97,80.37 86.08,80.37 49.11,0 85.37,-32.55 85.37,-80.37z"/>
     <g>
     </g>
     <g style="clip-path:url(#id1)">
      <g id="_2347896500992">
      </g>
      <g style="clip-path:url(#id2)">
       <image x="2792.52" y="521.35" width="467.67" height="323.77" xlink:href="Logo-TribunBooking-SVG_Images\Logo-TribunBooking-SVG_ImgID1.png"/>
      </g>
      <g style="clip-path:url(#id3)">
      </g>
     </g>
     <path class="fil2" d="M3077.18 809.43l-221.42 0 0 -249.82 141.9 152.18 147.33 0c0,0 63.81,-20.27 34.83,-78.8 -28.98,-58.39 -24.55,-63.81 -24.55,-63.81 0,0 34.69,-12.28 71.67,-24.84 3,17.85 6,32.41 6,32.41 0,0 27.69,-15.13 24.98,34.83 -2.71,49.96 -23.27,87.51 -33.97,105.35 -10.71,17.85 -133.91,82.94 -133.91,82.94l-12.84 9.57zm-284.66 -288.08l1.57 0 0 325.63 -1.57 -0 0 -325.63 0 0z"/>
     <g style="clip-path:url(#id4)">
      <g id="_2347896499712">
       <rect class="fil5" x="2850.05" y="402.43" width="323.2" height="411.28"/>
      </g>
     </g>
     <path class="fil2" d="M2850.05 529.91l0 283.66 93.79 0c96.65,-181.44 229.41,-218.42 229.41,-218.42l-37.83 -48.68c-9.14,3.85 -19.56,6.14 -30.55,6.14 -37.11,0 -67.24,-25.27 -67.24,-56.24 0,-17.7 9.71,-33.41 24.84,-43.69l-38.12 -50.11c-85.94,13.27 -147.89,89.08 -174.31,127.48"/>
    </g>
   </g>
  </g>
 </g>
</svg>
